# xmcd
#
# Track frame offsets: 
#        150
#        13970
#        24645
#        47733
#        62788
#        76105
#        89530
#        99180
#        112073
#        123413
#        136728
#        149540
#        163210
#        175408
#        197273
#        209955
#        225745
#        236648
#
# Disc length: 3311 seconds
#
# Revision: 6
# Processed by: cddbd v1.5.2PL0 Copyright (c) Steve Scherf et al.
# Submitted via: ExactAudioCopy v1.0b3
#
DISCID=020ced12
DTITLE=Various Artist - Selection Of Blues, disc 1
DYEAR=1995
DGENRE=Blues
TTITLE0=Muddy Waters - I'm Ready
TTITLE1=B. B. King - Recession Blues
TTITLE2=Big Joe Turner - In The Evening
TTITLE3=Big Bill Broonzy - Lonesome Road Blues
TTITLE4=Willie Mabon - Lonely Blues
TTITLE5=S. Terry and B. Mac Ghee - Walk On
TTITLE6=Fats Domino - I'm In Love Again
TTITLE7=Bo Diddley - I'm A Man
TTITLE8=J. B. Lenoir - Mama Talk To Your Daughter
TTITLE9=Memphis Slim - Blue and Lonesome
TTITLE10=Joe Turner - Flip Flop and Fly
TTITLE11=La Vern Baker - Play It Fair
TTITLE12=Earl Bostic - Flamingo
TTITLE13=Sonny Boy Williamson - The Story Of Sonny Boy Williamson
TTITLE14=Albert King - Born Under A Bad Sign
TTITLE15=Bessie Smith - Do Your Duty
TTITLE16=The Drifters - Ruby Baby
TTITLE17=The Cookies - In Paradise
EXTD=YEAR: 1995
EXTT0=
EXTT1=
EXTT2=
EXTT3=
EXTT4=
EXTT5=
EXTT6=
EXTT7=
EXTT8=
EXTT9=
EXTT10=
EXTT11=
EXTT12=
EXTT13=
EXTT14=
EXTT15=
EXTT16=
EXTT17=
PLAYORDER=
